<svg xmlns="http://www.w3.org/2000/svg" viewBox="0 0 1100 550" aria-hidden="true">
  <g fill="#e8eaed" stroke="#d5dbe3" stroke-width="0.8" stroke-linejoin="round">
    <path d="M105,95 C145,78 205,72 255,88 295,108 310,148 300,195 275,235 235,258 185,262 140,248 110,215 95,175 92,132 Z"/>
    <path d="M255,285 C285,272 310,288 325,325 330,375 318,425 292,462 265,478 242,468 228,420 225,365 238,315 Z"/>
    <path d="M495,118 C535,108 565,118 578,142 572,172 548,192 515,198 488,185 478,158 485,132 Z"/>
    <path d="M505,205 C545,198 575,215 588,255 582,315 558,365 525,395 495,402 472,375 468,315 478,255 Z"/>
    <path d="M575,95 C665,82 755,95 825,125 875,165 895,215 885,265 855,305 795,322 725,312 655,285 605,245 578,195 568,145 Z"/>
    <path d="M745,305 C775,295 798,312 792,345 775,368 748,375 728,358 Z"/>
    <path d="M855,395 C915,385 955,405 965,438 948,472 905,488 862,478 842,445 848,412 Z"/>
    <path d="M335,58 C372,48 395,62 388,82 365,95 338,88 Z"/>
  </g>
</svg>
