<svg preserveAspectRatio="none" width="100%" height="100%" overflow="visible" style="display: block;" viewBox="0 0 19.9961 19.9961" fill="none" xmlns="http://www.w3.org/2000/svg">
<g id="Icon" clip-path="url(#clip0_0_17)">
<path id="Vector" d="M18.328 14.097V16.5965C18.3289 16.8285 18.2814 17.0582 18.1885 17.2708C18.0955 17.4834 17.9592 17.6743 17.7882 17.8312C17.6172 17.988 17.4153 18.1075 17.1955 18.1818C16.9757 18.2561 16.7428 18.2837 16.5117 18.2629C13.9479 17.9843 11.4852 17.1082 9.32143 15.705C7.30835 14.4258 5.60161 12.7191 4.32241 10.706C2.91433 8.53242 2.03806 6.05773 1.76458 3.48241C1.74375 3.25201 1.77114 3.0198 1.84498 2.80056C1.91882 2.58132 2.0375 2.37986 2.19346 2.20901C2.34943 2.03815 2.53926 1.90164 2.75087 1.80817C2.96249 1.7147 3.19125 1.66631 3.42258 1.6661H5.9221C6.32644 1.66212 6.71843 1.8053 7.02501 2.06896C7.3316 2.33262 7.53184 2.69877 7.58844 3.09915C7.69393 3.89905 7.88959 4.68445 8.17166 5.44036C8.28375 5.73857 8.30801 6.06267 8.24156 6.37424C8.17511 6.68582 8.02074 6.97182 7.79673 7.19835L6.7386 8.25647C7.92467 10.3424 9.65174 12.0694 11.7376 13.2555L12.7958 12.1974C13.0223 11.9734 13.3083 11.819 13.6199 11.7525C13.9314 11.6861 14.2555 11.7103 14.5537 11.8224C15.3097 12.1045 16.0951 12.3002 16.895 12.4057C17.2997 12.4628 17.6693 12.6666 17.9335 12.9785C18.1977 13.2903 18.3381 13.6884 18.328 14.097Z" stroke="var(--stroke-0, #009444)" stroke-width="1.66634" stroke-linecap="round" stroke-linejoin="round"/>
</g>
<defs>
<clipPath id="clip0_0_17">
<rect width="19.9961" height="19.9961" fill="white"/>
</clipPath>
</defs>
</svg>
