<svg xmlns="http://www.w3.org/2000/svg" viewBox="0 0 24 24" fill="currentColor"><path d="M8.69 3C4.9 3 1.8 5.58 1.8 8.77c0 1.58.86 3 2.2 4.04L3.2 15.2l3.45-1.73c.97.27 2 .42 3.04.42.22 0 .44-.01.65-.03C9.96 11.16 12.4 9 15.31 9c.34 0 .67.02 1 .06C15.86 5.58 12.55 3 8.69 3Zm-2.9 4.1a1.2 1.2 0 1 1 0-2.4 1.2 1.2 0 0 1 0 2.4Zm5.8 0a1.2 1.2 0 1 1 0-2.4 1.2 1.2 0 0 1 0 2.4ZM15.31 10.2c-3.2 0-5.8 2.2-5.8 4.9 0 2.68 2.6 4.9 5.8 4.9.66 0 1.3-.1 1.9-.27l2.58 1.3-.7-2.24c1.05-.8 1.72-1.95 1.72-3.24 0-2.7-2.6-4.9-5.8-4.9Zm-3.65 3.9a.96.96 0 1 1 0-1.92.96.96 0 0 1 0 1.92Zm3.65 0a.96.96 0 1 1 0-1.92.96.96 0 0 1 0 1.92Zm3.65 0a.96.96 0 1 1 0-1.92.96.96 0 0 1 0 1.92Z"/></svg>
